<?xml version="1.0" standalone="no"?><!DOCTYPE svg PUBLIC "-//W3C//DTD SVG 1.1//EN" "http://www.w3.org/Graphics/SVG/1.1/DTD/svg11.dtd"><svg t="1704531470396" class="icon" viewBox="0 0 1024 1024" version="1.1" xmlns="http://www.w3.org/2000/svg" p-id="6938" xmlns:xlink="http://www.w3.org/1999/xlink" width="200" height="200"><path d="M810.666667 640V213.333333a85.333333 85.333333 0 0 0-85.333334-85.333333H128a85.333333 85.333333 0 0 0-85.333333 85.333333v426.666667a85.333333 85.333333 0 0 0 85.333333 85.333333h597.333333a85.333333 85.333333 0 0 0 85.333334-85.333333z m-384-85.333333a120.746667 120.746667 0 0 1-70.4-22.186667L128 372.48V281.6l270.933333 189.866667a48.64 48.64 0 0 0 55.466667 0L725.333333 281.6v90.88l-228.266666 160A120.746667 120.746667 0 0 1 426.666667 554.666667z m469.333333-256v426.666666a85.333333 85.333333 0 0 1-85.333333 85.333334H213.333333a85.333333 85.333333 0 0 0 85.333334 85.333333h512a170.666667 170.666667 0 0 0 170.666666-170.666667V384a85.333333 85.333333 0 0 0-85.333333-85.333333z" p-id="6939"></path></svg>